<svg version="1.2" xmlns="http://www.w3.org/2000/svg" viewBox="0 0 100 100" width="100" height="100">
	<title>5578992-ai</title>
	<style>
		.s0 { fill: none;stroke: #c4ff31;stroke-miterlimit:10;stroke-width: .2 } 
	</style>
	<filter id="f0">
		<feFlood flood-color="#02934d" flood-opacity="1" />
		<feBlend mode="normal" in2="SourceGraphic"/>
		<feComposite in2="SourceAlpha" operator="in" />
	</filter>
	<g id="&lt;Group&gt;" filter="url(#f0)">
		<g id="&lt;Group&gt;">
			<g id="&lt;Group&gt;">
				<path id="&lt;Path&gt;" class="s0" d="m85.5 83.4c-0.9 1-2.2 2.3-3.2 3.1-1.7 1.4-4 3.3-5.8 4.4-1.9 1.2-4.6 2.6-6.6 3.6-1.8 0.8-4.2 1.7-6 2.2-1.6 0.5-3.8 1.1-5.4 1.3-1.1 0.2-2.5 0.4-3.5 0.5-1.4 0.1-3.3 0.2-4.8 0.2-3.6 0.1-6-0.3-7.4-0.5-0.9-0.1-2.2-0.4-3.1-0.6-1-0.2-2.4-0.5-3.4-0.8-0.9-0.3-2.1-0.7-2.9-1-0.9-0.3-2-0.7-2.9-1.1-0.7-0.3-1.7-0.8-2.5-1.2-0.7-0.3-1.6-0.8-2.3-1.2-0.7-0.4-1.6-1-2.3-1.4-1.3-0.9-3.3-2.2-5.9-4.5-1.1-1-2.5-2.4-3.5-3.5-0.5-0.5-1.2-1.3-1.6-1.8-0.5-0.6-1.2-1.4-1.6-2.1-0.5-0.6-1.1-1.4-1.5-2-0.4-0.7-1-1.6-1.4-2.3-0.4-0.7-1-1.7-1.4-2.5-0.4-0.8-0.9-1.8-1.2-2.5-0.4-1-0.9-2.2-1.3-3.2-0.4-1.1-0.8-2.6-1.1-3.7-0.6-1.9-1-4.5-1.3-6.5-0.8-5.8 1.4-12.2 7-18.1 14-14.9 44-21.7 66.8-15.3-22.8-6.4-52.8 0.4-66.8 15.3-5.6 5.9-7.8 12.3-7 18.1-0.5-3.5-0.5-5.4-0.5-7.5 0.1-1.8 0.3-4.3 0.6-6.1 0.3-2.2 0.9-5 1.6-7.1 0.6-2 1.6-4.7 2.5-6.6 1-2 2.5-4.6 3.7-6.5 1.4-1.9 3.3-4.3 4.9-6 2.7-2.9 4.8-4.5 6.2-5.6 1.7-1.3 4.2-2.8 6-3.9 1.7-0.9 4.1-2 5.9-2.7 2-0.7 4.8-1.6 7-2 1.6-0.4 3.7-0.8 5.4-0.9 1-0.1 2.4-0.2 3.5-0.2 1.3-0.1 3.2-0.1 4.6 0 1 0.1 2.3 0.2 3.3 0.4 1.2 0.1 2.7 0.4 3.9 0.6 2.5 0.6 5.4 1.5 6.3 1.8 0.8 0.4 2 0.8 2.8 1.2 1.5 0.7 3.5 1.6 4.9 2.4 0.7 0.4 1.6 0.9 2.3 1.4 0.6 0.4 1.4 1 2.1 1.4 0.6 0.5 1.3 1.1 1.9 1.5 6.8 5.5 10.7 11.6 12.9 15.8 0.4 0.9 1 2 1.3 2.9 0.4 0.8 0.8 1.9 1.1 2.8 0.5 1.1 0.9 2.6 1.2 3.7 0.5 1.9 1 4.5 1.3 6.4 0.2 1.2 0.3 2.8 0.4 4.1 0.1 2.2 0 6.3-0.5 9.6-0.7 4.4-1.5 6.9-2.7 10.2-0.4 1.1-0.9 2.5-1.5 3.5-1 2-2.5 4.6-3.7 6.5-1.2 1.9-3.3 4.3-4.8 6z"/>
				<g id="&lt;Group&gt;">
					<g id="&lt;Group&gt;">
						<path id="&lt;Path&gt;" class="s0" d="m75.4 22.9c-22.8-6.4-52.8 0.4-66.8 15.3 2.9 21.5 23.7 44.2 46.5 50.7 14-14.9 23.1-44.5 20.3-66z"/>
						<path id="&lt;Path&gt;" class="s0" d="m51 20.7c1.5 10.9 12 22.3 23.5 25.6"/>
						<path id="&lt;Path&gt;" class="s0" d="m27.1 26.2c2.5 18.6 20.4 38.1 40.1 43.7"/>
						<path id="&lt;Path&gt;" class="s0" d="m75.4 22.9c-18.3 5.3-44.5 21.7-58.5 36.6"/>
						<path id="&lt;Path&gt;" class="s0" d="m75.4 22.9c-9.1 15.3-27.8 39.9-41.9 54.7"/>
					</g>
					<g id="&lt;Group&gt;">
						<path id="&lt;Path&gt;" class="s0" d="m75.4 22.9c2.8 21.5-6.3 51.1-20.3 66 22.8 6.5 39-5.7 36.2-27.2 14-14.9 6.9-32.3-15.9-38.8z"/>
						<path id="&lt;Path&gt;" class="s0" d="m74.5 46.3c11.5 3.2 19.7-2.9 18.2-13.8"/>
						<path id="&lt;Path&gt;" class="s0" d="m67.2 69.9c19.7 5.6 33.7-4.9 31.2-23.4"/>
						<path id="&lt;Path&gt;" class="s0" d="m75.4 22.9c13.9 21.8 13.9 51.7-0.1 66.6"/>
						<path id="&lt;Path&gt;" class="s0" d="m75.4 22.9c21.1 16.5 26.9 41.9 12.8 56.8"/>
					</g>
					<g id="&lt;Group&gt;">
						<path id="&lt;Path&gt;" class="s0" d="m75.4 22.9c22.8 6.5 29.9 23.9 15.9 38.8-2.9-21.5-23.7-44.2-46.6-50.7 14.1-14.9 27.8-9.5 30.7 11.9z"/>
						<path id="&lt;Path&gt;" class="s0" d="m92.7 32.5c-1.4-10.8-11.9-22.2-23.4-25.5"/>
						<path id="&lt;Path&gt;" class="s0" d="m98.4 46.5c-2.4-18.6-20.4-38.2-40.1-43.8"/>
						<path id="&lt;Path&gt;" class="s0" d="m75.4 22.9c18.2-5.2 21.6 2.6 7.6 17.5"/>
						<path id="&lt;Path&gt;" class="s0" d="m75.4 22.9c9-15.2 4.9-15.5-9.1-0.7"/>
					</g>
					<g id="&lt;Group&gt;">
						<path id="&lt;Path&gt;" class="s0" d="m75.4 22.9c-2.9-21.4-16.6-26.8-30.7-11.9-22.8-6.5-39 5.7-36.1 27.2 14-14.9 44-21.7 66.8-15.3z"/>
						<path id="&lt;Path&gt;" class="s0" d="m69.3 7c-11.5-3.3-19.7 2.9-18.3 13.7"/>
						<path id="&lt;Path&gt;" class="s0" d="m58.3 2.7c-19.7-5.6-33.7 4.9-31.2 23.5"/>
						<path id="&lt;Path&gt;" class="s0" d="m75.4 22.9c-14-21.8-36.8-27.4-50.8-12.5"/>
						<path id="&lt;Path&gt;" class="s0" d="m75.4 22.9c-21.2-16.4-49.7-17.6-63.8-2.7"/>
					</g>
					<g id="&lt;Group&gt;">
						<path id="&lt;Path&gt;" class="s0" d="m8.6 38.2c-14 14.9-6.9 32.3 15.9 38.7 2.9 21.5 16.6 26.9 30.6 12-22.8-6.5-43.6-29.2-46.5-50.7z"/>
						<path id="&lt;Path&gt;" class="s0" d="m1.4 53.4c2.5 18.6 20.5 38.2 40.2 43.8"/>
						<path id="&lt;Path&gt;" class="s0" d="m16.9 59.5c-14.1 14.8-10.6 22.7 7.6 17.4"/>
						<path id="&lt;Path&gt;" class="s0" d="m33.5 77.6c-14 14.9-18 14.6-9-0.7"/>
					</g>
					<g id="&lt;Group&gt;">
						<path id="&lt;Path&gt;" class="s0" d="m55.1 88.9c-14 14.9-27.7 9.5-30.6-12 22.8 6.5 52.7-0.3 66.8-15.2 2.8 21.5-13.4 33.7-36.2 27.2z"/>
						<path id="&lt;Path&gt;" class="s0" d="m41.6 97.2c19.7 5.6 33.7-5 31.2-23.5"/>
						<path id="&lt;Path&gt;" class="s0" d="m75.3 89.5c-14.1 14.9-36.8 9.2-50.8-12.6"/>
						<path id="&lt;Path&gt;" class="s0" d="m88.2 79.7c-14 14.9-42.6 13.7-63.7-2.8"/>
					</g>
					<g id="&lt;Group&gt;">
						<path id="&lt;Path&gt;" class="s0" d="m91.3 61.7c-14.1 14.9-44 21.7-66.8 15.2-2.9-21.4 6.2-51 20.2-65.9 22.9 6.5 43.7 29.2 46.6 50.7z"/>
						<path id="&lt;Path&gt;" class="s0" d="m72.8 73.7c-2.5-18.6-20.5-38.2-40.2-43.8"/>
						<path id="&lt;Path&gt;" class="s0" d="m83 40.4c-14 14.9-40.3 31.3-58.5 36.5"/>
						<path id="&lt;Path&gt;" class="s0" d="m66.3 22.2c-14 14.9-32.8 39.5-41.8 54.7"/>
					</g>
					<g id="&lt;Group&gt;">
						<path id="&lt;Path&gt;" class="s0" d="m44.7 11c-14 14.9-23.1 44.5-20.2 65.9-22.8-6.4-29.9-23.8-15.9-38.7-2.9-21.5 13.3-33.7 36.1-27.2z"/>
						<path id="&lt;Path&gt;" class="s0" d="m32.6 29.9c-19.7-5.6-33.7 5-31.2 23.5"/>
						<path id="&lt;Path&gt;" class="s0" d="m24.6 10.4c-14 14.9-14.1 44.7-0.1 66.5"/>
						<path id="&lt;Path&gt;" class="s0" d="m11.6 20.2c-14 14.8-8.2 40.3 12.9 56.7"/>
					</g>
				</g>
				<path id="&lt;Path&gt;" class="s0" d="m85.5 83.4c-0.9 1-2.2 2.3-3.2 3.1-1.7 1.4-4 3.3-5.8 4.4-1.9 1.2-4.6 2.6-6.6 3.6-1.8 0.8-4.2 1.7-6 2.2-1.6 0.5-3.8 1.1-5.4 1.3-1.1 0.2-2.5 0.4-3.5 0.5-1.4 0.1-3.3 0.2-4.8 0.2-3.6 0.1-6-0.3-7.4-0.5-0.9-0.1-2.2-0.4-3.1-0.6-1-0.2-2.4-0.5-3.4-0.8-0.9-0.3-2.1-0.7-2.9-1-0.9-0.3-2-0.7-2.9-1.1-0.7-0.3-1.7-0.8-2.5-1.2-0.7-0.3-1.6-0.8-2.3-1.2-0.7-0.4-1.6-1-2.3-1.4-1.3-0.9-3.3-2.2-5.9-4.5-1.1-1-2.5-2.4-3.5-3.5-0.5-0.5-1.2-1.3-1.6-1.8-0.5-0.6-1.2-1.4-1.6-2.1-0.5-0.6-1.1-1.4-1.5-2-0.4-0.7-1-1.6-1.4-2.3-0.4-0.7-1-1.7-1.4-2.5-0.4-0.8-0.9-1.8-1.2-2.5-0.4-1-0.9-2.2-1.3-3.2-0.4-1.1-0.8-2.6-1.1-3.7-0.6-1.9-1-4.5-1.3-6.5-0.8-5.8 1.4-12.2 7-18.1 14-14.9 44-21.7 66.8-15.3-22.8-6.4-52.8 0.4-66.8 15.3-5.6 5.9-7.8 12.3-7 18.1-0.5-3.5-0.5-5.4-0.5-7.5 0.1-1.8 0.3-4.3 0.6-6.1 0.3-2.2 0.9-5 1.6-7.1 0.6-2 1.6-4.7 2.5-6.6 1-2 2.5-4.6 3.7-6.5 1.4-1.9 3.3-4.3 4.9-6 2.7-2.9 4.8-4.5 6.2-5.6 1.7-1.3 4.2-2.8 6-3.9 1.7-0.9 4.1-2 5.9-2.7 2-0.7 4.8-1.6 7-2 1.6-0.4 3.7-0.8 5.4-0.9 1-0.1 2.4-0.2 3.5-0.2 1.3-0.1 3.2-0.1 4.6 0 1 0.1 2.3 0.2 3.3 0.4 1.2 0.1 2.7 0.4 3.9 0.6 2.5 0.6 5.4 1.5 6.3 1.8 0.8 0.4 2 0.8 2.8 1.2 1.5 0.7 3.5 1.6 4.9 2.4 0.7 0.4 1.6 0.9 2.3 1.4 0.6 0.4 1.4 1 2.1 1.4 0.6 0.5 1.3 1.1 1.9 1.5 6.8 5.5 10.7 11.6 12.9 15.8 0.4 0.9 1 2 1.3 2.9 0.4 0.8 0.8 1.9 1.1 2.8 0.5 1.1 0.9 2.6 1.2 3.7 0.5 1.9 1 4.5 1.3 6.4 0.2 1.2 0.3 2.8 0.4 4.1 0.1 2.2 0 6.3-0.5 9.6-0.7 4.4-1.5 6.9-2.7 10.2-0.4 1.1-0.9 2.5-1.5 3.5-1 2-2.5 4.6-3.7 6.5-1.2 1.9-3.3 4.3-4.8 6z"/>
				<path id="&lt;Path&gt;" class="s0" d="m98.3 43.5c0.3 2.1 0.5 4.9 0.4 7 0 2.9-0.2 4.8-0.7 7.7-0.2 1.9-0.8 4.3-1.4 6.1-0.7 2.1-1.7 5-2.7 7-1 1.9-2.4 4.4-3.7 6.2-1.3 1.9-3.1 4.3-4.7 5.9-1.6 1.7-3.9 3.8-5.8 5.2-2.8 2.2-4.4 3.1-6.8 4.4-1.9 1.1-4.5 2.1-6.4 2.9-1.8 0.6-4.2 1.4-6.1 1.7-2.1 0.4-4.9 0.9-7 1-1.6 0.1-3.7 0.1-5.3 0.1-1 0-2.3-0.1-3.3-0.2-1.3-0.2-3.1-0.5-4.4-0.7-0.9-0.2-2.2-0.5-3.1-0.7-1.1-0.3-2.5-0.8-3.6-1.1-0.8-0.3-1.9-0.8-2.7-1.1-2.1-0.8-4.4-2-5.3-2.6-0.7-0.4-1.6-0.9-2.3-1.4-0.6-0.4-1.4-1-2-1.4-0.7-0.5-1.5-1.1-2.1-1.5-1.7-1.4-2.9-2.6-3.6-3.3-1.3-1.3-1.4-1.4-3.3-3.6-1.3-1.5-3.4-4.5-4.5-6.4-0.8-1.4-1.8-3.3-2.5-4.8-0.4-0.9-0.9-2.1-1.2-2.9-0.3-1-0.8-2.4-1.1-3.4-0.3-0.9-0.6-2.1-0.8-3.1-0.3-1.2-0.6-2.9-0.7-4.2 1.1 8.9 9.2 16.7 22.9 20.6-13.7-3.9-21.8-11.7-22.9-20.6-0.2-2-0.5-4.8-0.5-6.9 0.1-2.9 0.3-4.8 0.7-7.7 0.3-1.9 0.9-4.3 1.5-6.1 0.7-2.2 1.7-5 2.7-7 1-1.9 2.4-4.4 3.6-6.2 1.3-1.9 3.2-4.3 4.8-5.9 1.6-1.7 3.9-3.8 5.7-5.2 2.9-2.2 4.5-3.1 6.9-4.5 1.8-1 4.4-2.1 6.4-2.8 1.8-0.7 4.2-1.4 6.1-1.7 2-0.4 4.8-0.9 6.9-1 1.6-0.1 3.7-0.2 5.3-0.1 1 0 2.4 0.1 3.4 0.2 1.3 0.1 3 0.4 4.4 0.7 0.9 0.2 2.1 0.5 3 0.7 1.1 0.3 2.6 0.8 3.6 1.1 0.9 0.3 1.9 0.7 2.8 1.1 2 0.8 4.3 2 5.3 2.6 0.7 0.4 1.6 0.9 2.2 1.4 0.6 0.4 1.5 0.9 2.1 1.4 0.6 0.4 1.4 1 2 1.5 1.7 1.4 2.9 2.5 3.7 3.3 1.3 1.3 1.4 1.4 3.3 3.6 1.2 1.4 3.4 4.5 4.4 6.3 0.9 1.5 1.9 3.4 2.6 4.9 0.4 0.9 0.9 2 1.2 2.9 0.3 1 0.8 2.3 1.1 3.3 0.2 1 0.5 2.2 0.8 3.1 0.3 1.3 0.6 3 0.7 4.2z"/>
				<g id="&lt;Group&gt;">
					<g id="&lt;Group&gt;">
						<path id="&lt;Path&gt;" class="s0" d="m75.4 22.9c-22.8-6.4-52.8 0.4-66.8 15.3 2.9 21.5 23.7 44.2 46.5 50.7 14-14.9 23.1-44.5 20.3-66z"/>
						<path id="&lt;Path&gt;" class="s0" d="m27.1 26.2c2.5 18.6 20.4 38.1 40.1 43.7"/>
						<path id="&lt;Path&gt;" class="s0" d="m75.4 22.9c-18.3 5.3-44.5 21.7-58.5 36.6"/>
						<path id="&lt;Path&gt;" class="s0" d="m75.4 22.9c-9.1 15.3-27.8 39.9-41.9 54.7"/>
					</g>
					<g id="&lt;Group&gt;">
						<path id="&lt;Path&gt;" class="s0" d="m75.4 22.9c2.8 21.5-6.3 51.1-20.3 66 22.8 6.5 39-5.7 36.2-27.2 14-14.9 6.9-32.3-15.9-38.8z"/>
						<path id="&lt;Path&gt;" class="s0" d="m67.2 69.9c19.7 5.6 33.7-4.9 31.2-23.4"/>
						<path id="&lt;Path&gt;" class="s0" d="m75.4 22.9c13.9 21.8 13.9 51.7-0.1 66.6"/>
						<path id="&lt;Path&gt;" class="s0" d="m75.4 22.9c21.1 16.5 26.9 41.9 12.8 56.8"/>
					</g>
					<g id="&lt;Group&gt;">
						<path id="&lt;Path&gt;" class="s0" d="m75.4 22.9c22.8 6.5 29.9 23.9 15.9 38.8-2.9-21.5-23.7-44.2-46.6-50.7 14.1-14.9 27.8-9.5 30.7 11.9z"/>
						<path id="&lt;Path&gt;" class="s0" d="m98.4 46.5c-2.4-18.6-20.4-38.2-40.1-43.8"/>
						<path id="&lt;Path&gt;" class="s0" d="m75.4 22.9c18.2-5.2 21.6 2.6 7.6 17.5"/>
						<path id="&lt;Path&gt;" class="s0" d="m75.4 22.9c9-15.2 4.9-15.5-9.1-0.7"/>
					</g>
					<g id="&lt;Group&gt;">
						<path id="&lt;Path&gt;" class="s0" d="m75.4 22.9c-2.9-21.4-16.6-26.8-30.7-11.9-22.8-6.5-39 5.7-36.1 27.2 14-14.9 44-21.7 66.8-15.3z"/>
						<path id="&lt;Path&gt;" class="s0" d="m58.3 2.7c-19.7-5.6-33.7 4.9-31.2 23.5"/>
						<path id="&lt;Path&gt;" class="s0" d="m75.4 22.9c-14-21.8-36.8-27.4-50.8-12.5"/>
						<path id="&lt;Path&gt;" class="s0" d="m75.4 22.9c-21.2-16.4-49.7-17.6-63.8-2.7"/>
					</g>
					<g id="&lt;Group&gt;">
						<path id="&lt;Path&gt;" class="s0" d="m8.6 38.2c-14 14.9-6.9 32.3 15.9 38.7 2.9 21.5 16.6 26.9 30.6 12-22.8-6.5-43.6-29.2-46.5-50.7z"/>
						<path id="&lt;Path&gt;" class="s0" d="m1.4 53.4c2.5 18.6 20.5 38.2 40.2 43.8"/>
						<path id="&lt;Path&gt;" class="s0" d="m7.1 67.3c1.5 10.9 12 22.3 23.5 25.6"/>
						<path id="&lt;Path&gt;" class="s0" d="m16.9 59.5c-14.1 14.8-10.6 22.7 7.6 17.4"/>
						<path id="&lt;Path&gt;" class="s0" d="m33.5 77.6c-14 14.9-18 14.6-9-0.7"/>
					</g>
					<g id="&lt;Group&gt;">
						<path id="&lt;Path&gt;" class="s0" d="m55.1 88.9c-14 14.9-27.7 9.5-30.6-12 22.8 6.5 52.7-0.3 66.8-15.2 2.8 21.5-13.4 33.7-36.2 27.2z"/>
						<path id="&lt;Path&gt;" class="s0" d="m41.6 97.2c19.7 5.6 33.7-5 31.2-23.5"/>
						<path id="&lt;Path&gt;" class="s0" d="m30.6 92.9c11.5 3.2 19.7-2.9 18.2-13.7"/>
						<path id="&lt;Path&gt;" class="s0" d="m75.3 89.5c-14.1 14.9-36.8 9.2-50.8-12.6"/>
						<path id="&lt;Path&gt;" class="s0" d="m88.2 79.7c-14 14.9-42.6 13.7-63.7-2.8"/>
					</g>
					<g id="&lt;Group&gt;">
						<path id="&lt;Path&gt;" class="s0" d="m91.3 61.7c-14.1 14.9-44 21.7-66.8 15.2-2.9-21.4 6.2-51 20.2-65.9 22.9 6.5 43.7 29.2 46.6 50.7z"/>
						<path id="&lt;Path&gt;" class="s0" d="m72.8 73.7c-2.5-18.6-20.5-38.2-40.2-43.8"/>
						<path id="&lt;Path&gt;" class="s0" d="m48.8 79.2c-1.4-10.9-11.9-22.3-23.4-25.6"/>
						<path id="&lt;Path&gt;" class="s0" d="m83 40.4c-14 14.9-40.3 31.3-58.5 36.5"/>
						<path id="&lt;Path&gt;" class="s0" d="m66.3 22.2c-14 14.9-32.8 39.5-41.8 54.7"/>
					</g>
					<g id="&lt;Group&gt;">
						<path id="&lt;Path&gt;" class="s0" d="m44.7 11c-14 14.9-23.1 44.5-20.2 65.9-22.8-6.4-29.9-23.8-15.9-38.7-2.9-21.5 13.3-33.7 36.1-27.2z"/>
						<path id="&lt;Path&gt;" class="s0" d="m32.6 29.9c-19.7-5.6-33.7 5-31.2 23.5"/>
						<path id="&lt;Path&gt;" class="s0" d="m25.4 53.6c-11.6-3.3-19.7 2.9-18.3 13.7"/>
						<path id="&lt;Path&gt;" class="s0" d="m24.6 10.4c-14 14.9-14.1 44.7-0.1 66.5"/>
						<path id="&lt;Path&gt;" class="s0" d="m11.6 20.2c-14 14.8-8.2 40.3 12.9 56.7"/>
					</g>
				</g>
				<g id="&lt;Group&gt;">
					<g id="&lt;Group&gt;">
						<path id="&lt;Path&gt;" class="s0" d="m72.9 73.8c-2.5-18.7-20.6-38.4-40.4-44"/>
						<path id="&lt;Path&gt;" class="s0" d="m24.3 77.1c9.1-15.4 28-40.1 42.1-55"/>
					</g>
					<g id="&lt;Group&gt;">
						<path id="&lt;Path&gt;" class="s0" d="m26.9 26c2.5 18.7 20.6 38.4 40.4 44.1"/>
						<path id="&lt;Path&gt;" class="s0" d="m33.4 77.8c14.2-15 33-39.7 42.1-55"/>
					</g>
					<g id="&lt;Group&gt;">
						<path id="&lt;Path&gt;" class="s0" d="m66.4 22.1c14.1-15 18.2-14.7 9.1 0.7"/>
					</g>
				</g>
				<g id="&lt;Group&gt;">
					<g id="&lt;Group&gt;">
						<path id="&lt;Path&gt;" class="s0" d="m72.9 73.8c-2.5-18.7-20.6-38.4-40.4-44"/>
						<path id="&lt;Path&gt;" class="s0" d="m24.3 77.1c9.1-15.4 28-40.1 42.1-55"/>
					</g>
					<g id="&lt;Group&gt;">
						<path id="&lt;Path&gt;" class="s0" d="m33.4 77.8c14.2-15 33-39.7 42.1-55"/>
					</g>
					<g id="&lt;Group&gt;">
						<path id="&lt;Path&gt;" class="s0" d="m66.4 22.1c14.1-15 18.2-14.7 9.1 0.7"/>
					</g>
				</g>
			</g>
		</g>
	</g>
</svg>