<svg width="1440" height="510" viewBox="0 0 1440 510" fill="none" xmlns="http://www.w3.org/2000/svg">
<mask id="mask0_302_1120" style="mask-type:alpha" maskUnits="userSpaceOnUse" x="-3" y="0" width="1443" height="510">
<rect x="-3" width="1443" height="510" fill="black"/>
</mask>
<g mask="url(#mask0_302_1120)">
<path d="M151.263 133.403C151.861 129.768 157.088 129.768 157.687 133.403L159.539 144.647L170.784 146.5C174.419 147.098 174.419 152.325 170.784 152.924L159.539 154.776L157.687 166.021C157.088 169.656 151.861 169.656 151.263 166.021L149.41 154.776L138.166 152.924C134.531 152.325 134.531 147.098 138.166 146.5L149.41 144.647L151.263 133.403Z" fill="#101010"/>
<path d="M379.686 133.403C380.285 129.768 385.512 129.768 386.111 133.403L387.963 144.647L399.207 146.5C402.843 147.098 402.843 152.325 399.207 152.924L387.963 154.776L386.111 166.021C385.512 169.656 380.285 169.656 379.686 166.021L377.834 154.776L366.59 152.924C362.954 152.325 362.954 147.098 366.59 146.5L377.834 144.647L379.686 133.403Z" fill="#101010"/>
<line x1="154.231" y1="-200.537" x2="154.231" y2="337.881" stroke="#101010" stroke-width="2.47738"/>
<line x1="382.149" y1="-200.537" x2="382.149" y2="337.881" stroke="#101010" stroke-width="2.47738"/>
<line x1="5.99628" y1="150.013" x2="537.52" y2="148.417" stroke="#101010" stroke-width="2.47738"/>
<path d="M153.024 -140.639L154.405 -103.37C155.25 -80.5693 173.545 -62.2834 196.347 -61.45L234.704 -60.048L196.347 -58.6461C173.545 -57.8127 155.25 -39.5268 154.405 -16.7259L153.024 20.543L151.643 -16.7258C150.798 -39.5268 132.502 -57.8127 109.701 -58.6461L71.3438 -60.048L109.701 -61.45C132.502 -62.2834 150.798 -80.5693 151.643 -103.37L153.024 -140.639Z" fill="white"/>
<path d="M610.848 132.314C611.447 128.679 616.674 128.679 617.273 132.314L619.125 143.558L630.37 145.411C634.005 146.009 634.005 151.236 630.37 151.835L619.125 153.687L617.273 164.932C616.674 168.567 611.447 168.567 610.848 164.932L608.996 153.687L597.752 151.835C594.117 151.236 594.117 146.009 597.752 145.411L608.996 143.558L610.848 132.314Z" fill="#101010"/>
<path d="M839.27 132.314C839.869 128.679 845.096 128.679 845.695 132.314L847.547 143.558L858.791 145.411C862.427 146.009 862.427 151.236 858.791 151.835L847.547 153.687L845.695 164.932C845.096 168.567 839.869 168.567 839.27 164.932L837.418 153.687L826.174 151.835C822.538 151.236 822.538 146.009 826.174 145.411L837.418 143.558L839.27 132.314Z" fill="#101010"/>
<line x1="613.817" y1="-201.626" x2="613.817" y2="336.792" stroke="#101010" stroke-width="2.47738"/>
<line x1="841.735" y1="-201.626" x2="841.735" y2="336.792" stroke="#101010" stroke-width="2.47738"/>
<line x1="465.582" y1="148.924" x2="997.106" y2="147.328" stroke="#101010" stroke-width="2.47738"/>
<path d="M1054.1 132.314C1054.7 128.679 1059.93 128.679 1060.52 132.314L1062.38 143.558L1073.62 145.411C1077.26 146.009 1077.26 151.236 1073.62 151.835L1062.38 153.687L1060.52 164.932C1059.93 168.567 1054.7 168.567 1054.1 164.932L1052.25 153.687L1041 151.835C1037.37 151.236 1037.37 146.009 1041 145.411L1052.25 143.558L1054.1 132.314Z" fill="#101010"/>
<path d="M1282.52 132.314C1283.12 128.679 1288.35 128.679 1288.95 132.314L1290.8 143.558L1302.04 145.411C1305.68 146.009 1305.68 151.236 1302.04 151.835L1290.8 153.687L1288.95 164.932C1288.35 168.567 1283.12 168.567 1282.52 164.932L1280.67 153.687L1269.43 151.835C1265.79 151.236 1265.79 146.009 1269.43 145.411L1280.67 143.558L1282.52 132.314Z" fill="#101010"/>
<line x1="1057.07" y1="-201.626" x2="1057.07" y2="336.792" stroke="#101010" stroke-width="2.47738"/>
<line x1="1284.99" y1="-201.626" x2="1284.99" y2="336.792" stroke="#101010" stroke-width="2.47738"/>
<line x1="908.834" y1="148.924" x2="1440.36" y2="147.328" stroke="#101010" stroke-width="2.47738"/>
<path d="M379.686 342.217C380.285 338.582 385.512 338.582 386.111 342.217L387.963 353.462L399.207 355.314C402.843 355.913 402.843 361.14 399.207 361.738L387.963 363.59L386.111 374.835C385.512 378.47 380.285 378.47 379.686 374.835L377.834 363.59L366.59 361.738C362.954 361.14 362.954 355.913 366.59 355.314L377.834 353.462L379.686 342.217Z" fill="#101010"/>
<path d="M151.263 342.217C151.861 338.582 157.088 338.582 157.687 342.217L159.539 353.462L170.784 355.314C174.419 355.913 174.419 361.14 170.784 361.738L159.539 363.59L157.687 374.835C157.088 378.47 151.861 378.47 151.263 374.835L149.41 363.59L138.166 361.738C134.531 361.14 134.531 355.913 138.166 355.314L149.41 353.462L151.263 342.217Z" fill="#101010"/>
<line x1="154.231" y1="217.665" x2="154.231" y2="756.083" stroke="#101010" stroke-width="2.47738"/>
<line x1="382.149" y1="217.665" x2="382.149" y2="756.083" stroke="#101010" stroke-width="2.47738"/>
<line x1="5.99628" y1="358.463" x2="537.52" y2="356.867" stroke="#101010" stroke-width="2.47738"/>
<path d="M839.27 340.039C839.869 336.404 845.096 336.404 845.695 340.039L847.547 351.284L858.791 353.136C862.427 353.735 862.427 358.962 858.791 359.56L847.547 361.412L845.695 372.657C845.096 376.292 839.869 376.292 839.27 372.657L837.418 361.412L826.174 359.56C822.538 358.962 822.538 353.735 826.174 353.136L837.418 351.284L839.27 340.039Z" fill="#101010"/>
<path d="M610.848 340.039C611.447 336.404 616.674 336.404 617.273 340.039L619.125 351.284L630.37 353.136C634.005 353.735 634.005 358.962 630.37 359.56L619.125 361.412L617.273 372.657C616.674 376.292 611.447 376.292 610.848 372.657L608.996 361.412L597.752 359.56C594.117 358.962 594.117 353.735 597.752 353.136L608.996 351.284L610.848 340.039Z" fill="#101010"/>
<line x1="613.817" y1="215.487" x2="613.817" y2="753.905" stroke="#101010" stroke-width="2.47738"/>
<line x1="841.735" y1="215.487" x2="841.735" y2="753.905" stroke="#101010" stroke-width="2.47738"/>
<line x1="465.582" y1="356.285" x2="997.106" y2="354.689" stroke="#101010" stroke-width="2.47738"/>
<path d="M1282.52 340.039C1283.12 336.404 1288.35 336.404 1288.95 340.039L1290.8 351.284L1302.04 353.136C1305.68 353.735 1305.68 358.962 1302.04 359.56L1290.8 361.412L1288.95 372.657C1288.35 376.292 1283.12 376.292 1282.52 372.657L1280.67 361.412L1269.43 359.56C1265.79 358.962 1265.79 353.735 1269.43 353.136L1280.67 351.284L1282.52 340.039Z" fill="#101010"/>
<path d="M1054.1 340.039C1054.7 336.404 1059.93 336.404 1060.52 340.039L1062.38 351.284L1073.62 353.136C1077.26 353.735 1077.26 358.962 1073.62 359.56L1062.38 361.412L1060.52 372.657C1059.93 376.292 1054.7 376.292 1054.1 372.657L1052.25 361.412L1041 359.56C1037.37 358.962 1037.37 353.735 1041 353.136L1052.25 351.284L1054.1 340.039Z" fill="#101010"/>
<line x1="1057.07" y1="215.487" x2="1057.07" y2="753.905" stroke="#101010" stroke-width="2.47738"/>
<line x1="1284.99" y1="215.487" x2="1284.99" y2="753.905" stroke="#101010" stroke-width="2.47738"/>
<line x1="908.834" y1="356.285" x2="1440.36" y2="354.689" stroke="#101010" stroke-width="2.47738"/>
</g>
</svg>
